<?xml version="1.0" encoding="UTF-8" standalone="no"?>
<!DOCTYPE svg PUBLIC "-//W3C//DTD SVG 1.1//EN"
 "http://www.w3.org/Graphics/SVG/1.1/DTD/svg11.dtd">
<!-- Generated by graphviz version 16.0.0 (0)
 -->
<!-- Title: handover Pages: 1 -->
<svg width="2367pt" height="172pt"
 viewBox="0.00 0.00 2367.00 172.00" xmlns="http://www.w3.org/2000/svg" xmlns:xlink="http://www.w3.org/1999/xlink">
<g id="graph0" class="graph" transform="scale(1 1) rotate(0) translate(14.4 157.4)">
<title>handover</title>
<g id="clust1" class="cluster">
<title>cluster_send</title>
<path fill="none" stroke="#004d40" d="M20,-30C20,-30 787.75,-30 787.75,-30 793.75,-30 799.75,-36 799.75,-42 799.75,-42 799.75,-102 799.75,-102 799.75,-108 793.75,-114 787.75,-114 787.75,-114 20,-114 20,-114 14,-114 8,-108 8,-102 8,-102 8,-42 8,-42 8,-36 14,-30 20,-30"/>
<text xml:space="preserve" text-anchor="middle" x="403.88" y="-98.6" font-family="Jost" font-size="12.00">sender: ljos handover</text>
</g>
<g id="clust2" class="cluster">
<title>cluster_recv</title>
<path fill="none" stroke="#004d40" d="M1039.5,-8C1039.5,-8 2318,-8 2318,-8 2324,-8 2330,-14 2330,-20 2330,-20 2330,-123 2330,-123 2330,-129 2324,-135 2318,-135 2318,-135 1039.5,-135 1039.5,-135 1033.5,-135 1027.5,-129 1027.5,-123 1027.5,-123 1027.5,-20 1027.5,-20 1027.5,-14 1033.5,-8 1039.5,-8"/>
<text xml:space="preserve" text-anchor="middle" x="1678.75" y="-119.6" font-family="Jost" font-size="12.00">receiver: ljos receive</text>
</g>
<!-- satchel -->
<g id="node1" class="node">
<title>satchel</title>
<path fill="white" stroke="#004d40" stroke-width="1.4" d="M132.5,-80.25C132.5,-80.25 28,-80.25 28,-80.25 22,-80.25 16,-74.25 16,-68.25 16,-68.25 16,-49.75 16,-49.75 16,-43.75 22,-37.75 28,-37.75 28,-37.75 132.5,-37.75 132.5,-37.75 138.5,-37.75 144.5,-43.75 144.5,-49.75 144.5,-49.75 144.5,-68.25 144.5,-68.25 144.5,-74.25 138.5,-80.25 132.5,-80.25"/>
<text xml:space="preserve" text-anchor="middle" x="80.25" y="-64.85" font-family="Jost" font-size="12.00" fill="#004d40">vissue satchel</text>
<text xml:space="preserve" text-anchor="middle" x="80.25" y="-47.6" font-family="Jost" font-size="12.00" fill="#004d40">issues, plans, needs</text>
</g>
<!-- atoms -->
<g id="node2" class="node">
<title>atoms</title>
<path fill="white" stroke="#004d40" stroke-width="1.4" d="M328,-80.25C328,-80.25 214.5,-80.25 214.5,-80.25 208.5,-80.25 202.5,-74.25 202.5,-68.25 202.5,-68.25 202.5,-49.75 202.5,-49.75 202.5,-43.75 208.5,-37.75 214.5,-37.75 214.5,-37.75 328,-37.75 328,-37.75 334,-37.75 340,-43.75 340,-49.75 340,-49.75 340,-68.25 340,-68.25 340,-74.25 334,-80.25 328,-80.25"/>
<text xml:space="preserve" text-anchor="middle" x="271.25" y="-64.85" font-family="Jost" font-size="12.00" fill="#004d40">packset export</text>
<text xml:space="preserve" text-anchor="middle" x="271.25" y="-47.6" font-family="Jost" font-size="12.00" fill="#004d40">claims and trust rows</text>
</g>
<!-- satchel&#45;&gt;atoms -->
<g id="edge1" class="edge">
<title>satchel&#45;&gt;atoms</title>
<path fill="none" stroke="#004d40" d="M144.97,-59C160.29,-59 176.82,-59 192.69,-59"/>
<polygon fill="#004d40" stroke="#004d40" points="192.43,-61.8 200.43,-59 192.43,-56.2 192.43,-61.8"/>
</g>
<!-- deeds -->
<g id="node3" class="node">
<title>deeds</title>
<path fill="white" stroke="#004d40" stroke-width="1.4" d="M601.5,-80.25C601.5,-80.25 410,-80.25 410,-80.25 404,-80.25 398,-74.25 398,-68.25 398,-68.25 398,-49.75 398,-49.75 398,-43.75 404,-37.75 410,-37.75 410,-37.75 601.5,-37.75 601.5,-37.75 607.5,-37.75 613.5,-43.75 613.5,-49.75 613.5,-49.75 613.5,-68.25 613.5,-68.25 613.5,-74.25 607.5,-80.25 601.5,-80.25"/>
<text xml:space="preserve" text-anchor="middle" x="505.75" y="-64.85" font-family="Jost" font-size="12.00" fill="#004d40">deedar export</text>
<text xml:space="preserve" text-anchor="middle" x="505.75" y="-47.6" font-family="Jost" font-size="12.00" fill="#004d40">deeds with receipts to the log head</text>
</g>
<!-- atoms&#45;&gt;deeds -->
<g id="edge2" class="edge">
<title>atoms&#45;&gt;deeds</title>
<path fill="none" stroke="#004d40" d="M340.44,-59C355.59,-59 372.06,-59 388.53,-59"/>
<polygon fill="#004d40" stroke="#004d40" points="388.16,-61.8 396.16,-59 388.16,-56.2 388.16,-61.8"/>
</g>
<!-- seal -->
<g id="node4" class="node">
<title>seal</title>
<path fill="#f1db4b" stroke="#004d40" stroke-width="1.4" d="M779.75,-80.25C779.75,-80.25 683.5,-80.25 683.5,-80.25 677.5,-80.25 671.5,-74.25 671.5,-68.25 671.5,-68.25 671.5,-49.75 671.5,-49.75 671.5,-43.75 677.5,-37.75 683.5,-37.75 683.5,-37.75 779.75,-37.75 779.75,-37.75 785.75,-37.75 791.75,-43.75 791.75,-49.75 791.75,-49.75 791.75,-68.25 791.75,-68.25 791.75,-74.25 785.75,-80.25 779.75,-80.25"/>
<text xml:space="preserve" text-anchor="middle" x="731.62" y="-64.85" font-family="Jost" font-size="12.00" fill="#004d40">seal and sign</text>
<text xml:space="preserve" text-anchor="middle" x="731.62" y="-47.6" font-family="Jost" font-size="12.00" fill="#004d40">manifest, Ed25519</text>
</g>
<!-- deeds&#45;&gt;seal -->
<g id="edge3" class="edge">
<title>deeds&#45;&gt;seal</title>
<path fill="none" stroke="#004d40" d="M614.1,-59C630.27,-59 646.57,-59 661.64,-59"/>
<polygon fill="#004d40" stroke="#004d40" points="661.34,-61.8 669.34,-59 661.34,-56.2 661.34,-61.8"/>
</g>
<!-- bag -->
<g id="node5" class="node">
<title>bag</title>
<polygon fill="white" stroke="#004d40" stroke-width="1.4" points="977.5,-80.25 974.5,-84.25 953.5,-84.25 950.5,-80.25 849.75,-80.25 849.75,-37.75 977.5,-37.75 977.5,-80.25"/>
<text xml:space="preserve" text-anchor="middle" x="913.62" y="-64.85" font-family="Jost" font-size="12.00" fill="#004d40">the bag</text>
<text xml:space="preserve" text-anchor="middle" x="913.62" y="-47.6" font-family="Jost" font-size="12.00" fill="#004d40">BagIt, one directory</text>
</g>
<!-- seal&#45;&gt;bag -->
<g id="edge4" class="edge">
<title>seal&#45;&gt;bag</title>
<path fill="none" stroke="#004d40" d="M792.06,-59C807.39,-59 824.05,-59 839.96,-59"/>
<polygon fill="#004d40" stroke="#004d40" points="839.71,-61.8 847.71,-59 839.71,-56.2 839.71,-61.8"/>
</g>
<!-- q1 -->
<g id="node6" class="node">
<title>q1</title>
<path fill="#f1db4b" stroke="#004d40" stroke-width="1.4" d="M1169.73,-98.14C1169.73,-98.14 1047.02,-62.36 1047.02,-62.36 1041.26,-60.68 1041.26,-57.32 1047.02,-55.64 1047.02,-55.64 1169.73,-19.86 1169.73,-19.86 1175.49,-18.18 1187.01,-18.18 1192.77,-19.86 1192.77,-19.86 1315.48,-55.64 1315.48,-55.64 1321.24,-57.32 1321.24,-60.68 1315.48,-62.36 1315.48,-62.36 1192.77,-98.14 1192.77,-98.14 1187.01,-99.82 1175.49,-99.82 1169.73,-98.14"/>
<text xml:space="preserve" text-anchor="middle" x="1181.25" y="-64.85" font-family="Jost" font-size="12.00" fill="#004d40">did it arrive as written?</text>
<text xml:space="preserve" text-anchor="middle" x="1181.25" y="-47.6" font-family="Jost" font-size="12.00" fill="#004d40">manifest</text>
</g>
<!-- bag&#45;&gt;q1 -->
<g id="edge8" class="edge">
<title>bag&#45;&gt;q1</title>
<path fill="none" stroke="#004d40" d="M977.91,-59C992.02,-59 1007.59,-59 1023.64,-59"/>
<polygon fill="#004d40" stroke="#004d40" points="1023.62,-61.8 1031.62,-59 1023.62,-56.2 1023.62,-61.8"/>
</g>
<!-- q2 -->
<g id="node7" class="node">
<title>q2</title>
<path fill="#f1db4b" stroke="#004d40" stroke-width="1.4" d="M1578.25,-99.06C1578.25,-99.06 1396.75,-61.44 1396.75,-61.44 1390.88,-60.22 1390.88,-57.78 1396.75,-56.56 1396.75,-56.56 1578.25,-18.94 1578.25,-18.94 1584.12,-17.72 1595.88,-17.72 1601.75,-18.94 1601.75,-18.94 1783.25,-56.56 1783.25,-56.56 1789.12,-57.78 1789.12,-60.22 1783.25,-61.44 1783.25,-61.44 1601.75,-99.06 1601.75,-99.06 1595.88,-100.28 1584.12,-100.28 1578.25,-99.06"/>
<text xml:space="preserve" text-anchor="middle" x="1590" y="-64.85" font-family="Jost" font-size="12.00" fill="#004d40">were the deeds in the log before?</text>
<text xml:space="preserve" text-anchor="middle" x="1590" y="-47.6" font-family="Jost" font-size="12.00" fill="#004d40">receipts, bridge from a kept head</text>
</g>
<!-- q1&#45;&gt;q2 -->
<g id="edge5" class="edge">
<title>q1&#45;&gt;q2</title>
<path fill="none" stroke="#004d40" d="M1329.38,-59C1343.51,-59 1358.03,-59 1372.64,-59"/>
<polygon fill="#004d40" stroke="#004d40" points="1372.23,-61.8 1380.23,-59 1372.23,-56.2 1372.23,-61.8"/>
</g>
<!-- q3 -->
<g id="node8" class="node">
<title>q3</title>
<path fill="#f1db4b" stroke="#004d40" stroke-width="1.4" d="M1939.75,-96.72C1939.75,-96.72 1864,-63.78 1864,-63.78 1858.5,-61.39 1858.5,-56.61 1864,-54.22 1864,-54.22 1939.75,-21.28 1939.75,-21.28 1945.25,-18.89 1956.25,-18.89 1961.75,-21.28 1961.75,-21.28 2037.5,-54.22 2037.5,-54.22 2043,-56.61 2043,-61.39 2037.5,-63.78 2037.5,-63.78 1961.75,-96.72 1961.75,-96.72 1956.25,-99.11 1945.25,-99.11 1939.75,-96.72"/>
<text xml:space="preserve" text-anchor="middle" x="1950.75" y="-64.85" font-family="Jost" font-size="12.00" fill="#004d40">who signed it?</text>
<text xml:space="preserve" text-anchor="middle" x="1950.75" y="-47.6" font-family="Jost" font-size="12.00" fill="#004d40">accepted keys</text>
</g>
<!-- q2&#45;&gt;q3 -->
<g id="edge6" class="edge">
<title>q2&#45;&gt;q3</title>
<path fill="none" stroke="#004d40" d="M1798.39,-59C1813.41,-59 1828.16,-59 1842.2,-59"/>
<polygon fill="#004d40" stroke="#004d40" points="1841.81,-61.8 1849.81,-59 1841.81,-56.2 1841.81,-61.8"/>
</g>
<!-- import -->
<g id="node9" class="node">
<title>import</title>
<path fill="#ff655d" stroke="#ff655d" stroke-width="1.4" d="M2310,-80.25C2310,-80.25 2118.5,-80.25 2118.5,-80.25 2112.5,-80.25 2106.5,-74.25 2106.5,-68.25 2106.5,-68.25 2106.5,-49.75 2106.5,-49.75 2106.5,-43.75 2112.5,-37.75 2118.5,-37.75 2118.5,-37.75 2310,-37.75 2310,-37.75 2316,-37.75 2322,-43.75 2322,-49.75 2322,-49.75 2322,-68.25 2322,-68.25 2322,-74.25 2316,-80.25 2310,-80.25"/>
<text xml:space="preserve" text-anchor="middle" x="2214.25" y="-64.85" font-family="Jost" font-size="12.00" fill="white">&#45;&#45;import</text>
<text xml:space="preserve" text-anchor="middle" x="2214.25" y="-47.6" font-family="Jost" font-size="12.00" fill="white">claims and trust rows join this pack</text>
</g>
<!-- q3&#45;&gt;import -->
<g id="edge7" class="edge">
<title>q3&#45;&gt;import</title>
<path fill="none" stroke="#004d40" d="M2050.24,-59C2065.49,-59 2081.36,-59 2096.96,-59"/>
<polygon fill="#004d40" stroke="#004d40" points="2096.59,-61.8 2104.59,-59 2096.59,-56.2 2096.59,-61.8"/>
</g>
</g>
</svg>
