<?xml version="1.0" encoding="UTF-8"?>
<svg xmlns="http://www.w3.org/2000/svg" viewBox="0 0 1000 580" role="img" aria-label="landfold of the seat pack">
<rect width="1000" height="580" fill="#0B0B0A"/>
<line x1="764.4" y1="299.1" x2="640.0" y2="190.1" stroke="#E6A23C" stroke-width="1.1" opacity="0.45"/>
<line x1="764.4" y1="299.1" x2="557.8" y2="206.7" stroke="#E6A23C" stroke-width="1.1" opacity="0.45"/>
<line x1="764.4" y1="299.1" x2="669.6" y2="212.0" stroke="#E6A23C" stroke-width="1.1" opacity="0.45"/>
<line x1="764.4" y1="299.1" x2="882.8" y2="278.6" stroke="#E6A23C" stroke-width="1.1" opacity="0.45"/>
<line x1="764.4" y1="299.1" x2="728.5" y2="345.9" stroke="#E6A23C" stroke-width="1.1" opacity="0.45"/>
<line x1="764.4" y1="299.1" x2="808.0" y2="324.4" stroke="#E6A23C" stroke-width="1.1" opacity="0.45"/>
<line x1="764.4" y1="299.1" x2="687.5" y2="241.6" stroke="#E6A23C" stroke-width="1.1" opacity="0.45"/>
<line x1="764.4" y1="299.1" x2="797.4" y2="415.8" stroke="#E6A23C" stroke-width="1.1" opacity="0.45"/>
<line x1="640.0" y1="190.1" x2="557.8" y2="206.7" stroke="#E6A23C" stroke-width="1.1" opacity="0.45"/>
<line x1="640.0" y1="190.1" x2="669.6" y2="212.0" stroke="#E6A23C" stroke-width="1.1" opacity="0.45"/>
<line x1="640.0" y1="190.1" x2="882.8" y2="278.6" stroke="#E6A23C" stroke-width="1.1" opacity="0.45"/>
<line x1="640.0" y1="190.1" x2="728.5" y2="345.9" stroke="#E6A23C" stroke-width="1.1" opacity="0.45"/>
<line x1="640.0" y1="190.1" x2="808.0" y2="324.4" stroke="#E6A23C" stroke-width="1.1" opacity="0.45"/>
<line x1="640.0" y1="190.1" x2="687.5" y2="241.6" stroke="#E6A23C" stroke-width="1.1" opacity="0.45"/>
<line x1="480.7" y1="456.4" x2="494.2" y2="431.1" stroke="#E6A23C" stroke-width="1.1" opacity="0.45"/>
<line x1="480.7" y1="456.4" x2="348.6" y2="171.2" stroke="#E6A23C" stroke-width="1.1" opacity="0.45"/>
<line x1="480.7" y1="456.4" x2="429.4" y2="187.9" stroke="#E6A23C" stroke-width="1.1" opacity="0.45"/>
<line x1="480.7" y1="456.4" x2="591.0" y2="170.2" stroke="#E6A23C" stroke-width="1.1" opacity="0.45"/>
<line x1="480.7" y1="456.4" x2="239.1" y2="365.9" stroke="#E6A23C" stroke-width="1.1" opacity="0.45"/>
<line x1="480.7" y1="456.4" x2="353.6" y2="434.6" stroke="#E6A23C" stroke-width="1.1" opacity="0.45"/>
<line x1="480.7" y1="456.4" x2="167.9" y2="213.5" stroke="#E6A23C" stroke-width="1.1" opacity="0.45"/>
<line x1="480.7" y1="456.4" x2="341.6" y2="481.9" stroke="#E6A23C" stroke-width="1.1" opacity="0.45"/>
<line x1="808.3" y1="235.3" x2="748.3" y2="274.2" stroke="#E6A23C" stroke-width="1.1" opacity="0.45"/>
<line x1="808.3" y1="235.3" x2="117.2" y2="251.1" stroke="#E6A23C" stroke-width="1.1" opacity="0.45"/>
<line x1="808.3" y1="235.3" x2="657.9" y2="281.6" stroke="#E6A23C" stroke-width="1.1" opacity="0.45"/>
<line x1="808.3" y1="235.3" x2="736.0" y2="234.8" stroke="#E6A23C" stroke-width="1.1" opacity="0.45"/>
<line x1="808.3" y1="235.3" x2="200.5" y2="424.3" stroke="#E6A23C" stroke-width="1.1" opacity="0.45"/>
<line x1="494.2" y1="431.1" x2="348.6" y2="171.2" stroke="#E6A23C" stroke-width="1.1" opacity="0.45"/>
<line x1="494.2" y1="431.1" x2="429.4" y2="187.9" stroke="#E6A23C" stroke-width="1.1" opacity="0.45"/>
<line x1="494.2" y1="431.1" x2="591.0" y2="170.2" stroke="#E6A23C" stroke-width="1.1" opacity="0.45"/>
<line x1="494.2" y1="431.1" x2="239.1" y2="365.9" stroke="#E6A23C" stroke-width="1.1" opacity="0.45"/>
<line x1="494.2" y1="431.1" x2="353.6" y2="434.6" stroke="#E6A23C" stroke-width="1.1" opacity="0.45"/>
<line x1="494.2" y1="431.1" x2="167.9" y2="213.5" stroke="#E6A23C" stroke-width="1.1" opacity="0.45"/>
<line x1="494.2" y1="431.1" x2="341.6" y2="481.9" stroke="#E6A23C" stroke-width="1.1" opacity="0.45"/>
<line x1="557.8" y1="206.7" x2="669.6" y2="212.0" stroke="#E6A23C" stroke-width="1.1" opacity="0.45"/>
<line x1="557.8" y1="206.7" x2="882.8" y2="278.6" stroke="#E6A23C" stroke-width="1.1" opacity="0.45"/>
<line x1="557.8" y1="206.7" x2="728.5" y2="345.9" stroke="#E6A23C" stroke-width="1.1" opacity="0.45"/>
<line x1="557.8" y1="206.7" x2="808.0" y2="324.4" stroke="#E6A23C" stroke-width="1.1" opacity="0.45"/>
<line x1="557.8" y1="206.7" x2="687.5" y2="241.6" stroke="#E6A23C" stroke-width="1.1" opacity="0.45"/>
<line x1="348.6" y1="171.2" x2="591.0" y2="170.2" stroke="#E6A23C" stroke-width="1.1" opacity="0.45"/>
<line x1="348.6" y1="171.2" x2="239.1" y2="365.9" stroke="#E6A23C" stroke-width="1.1" opacity="0.45"/>
<line x1="348.6" y1="171.2" x2="353.6" y2="434.6" stroke="#E6A23C" stroke-width="1.1" opacity="0.45"/>
<line x1="348.6" y1="171.2" x2="167.9" y2="213.5" stroke="#E6A23C" stroke-width="1.1" opacity="0.45"/>
<line x1="348.6" y1="171.2" x2="341.6" y2="481.9" stroke="#E6A23C" stroke-width="1.1" opacity="0.45"/>
<line x1="748.3" y1="274.2" x2="117.2" y2="251.1" stroke="#E6A23C" stroke-width="1.1" opacity="0.45"/>
<line x1="748.3" y1="274.2" x2="200.5" y2="424.3" stroke="#E6A23C" stroke-width="1.1" opacity="0.45"/>
<line x1="117.2" y1="251.1" x2="736.0" y2="234.8" stroke="#E6A23C" stroke-width="1.1" opacity="0.45"/>
<line x1="117.2" y1="251.1" x2="797.4" y2="415.8" stroke="#E6A23C" stroke-width="1.1" opacity="0.45"/>
<line x1="117.2" y1="251.1" x2="200.5" y2="424.3" stroke="#E6A23C" stroke-width="1.1" opacity="0.45"/>
<line x1="657.9" y1="281.6" x2="736.0" y2="234.8" stroke="#E6A23C" stroke-width="1.1" opacity="0.45"/>
<line x1="657.9" y1="281.6" x2="797.4" y2="415.8" stroke="#E6A23C" stroke-width="1.1" opacity="0.45"/>
<line x1="657.9" y1="281.6" x2="200.5" y2="424.3" stroke="#E6A23C" stroke-width="1.1" opacity="0.45"/>
<line x1="669.6" y1="212.0" x2="882.8" y2="278.6" stroke="#E6A23C" stroke-width="1.1" opacity="0.45"/>
<line x1="669.6" y1="212.0" x2="728.5" y2="345.9" stroke="#E6A23C" stroke-width="1.1" opacity="0.45"/>
<line x1="669.6" y1="212.0" x2="808.0" y2="324.4" stroke="#E6A23C" stroke-width="1.1" opacity="0.45"/>
<line x1="669.6" y1="212.0" x2="687.5" y2="241.6" stroke="#E6A23C" stroke-width="1.1" opacity="0.45"/>
<line x1="429.4" y1="187.9" x2="239.1" y2="365.9" stroke="#E6A23C" stroke-width="1.1" opacity="0.45"/>
<line x1="429.4" y1="187.9" x2="353.6" y2="434.6" stroke="#E6A23C" stroke-width="1.1" opacity="0.45"/>
<line x1="429.4" y1="187.9" x2="167.9" y2="213.5" stroke="#E6A23C" stroke-width="1.1" opacity="0.45"/>
<line x1="882.8" y1="278.6" x2="728.5" y2="345.9" stroke="#E6A23C" stroke-width="1.1" opacity="0.45"/>
<line x1="882.8" y1="278.6" x2="808.0" y2="324.4" stroke="#E6A23C" stroke-width="1.1" opacity="0.45"/>
<line x1="882.8" y1="278.6" x2="687.5" y2="241.6" stroke="#E6A23C" stroke-width="1.1" opacity="0.45"/>
<line x1="728.5" y1="345.9" x2="808.0" y2="324.4" stroke="#E6A23C" stroke-width="1.1" opacity="0.45"/>
<line x1="728.5" y1="345.9" x2="687.5" y2="241.6" stroke="#E6A23C" stroke-width="1.1" opacity="0.45"/>
<line x1="591.0" y1="170.2" x2="239.1" y2="365.9" stroke="#E6A23C" stroke-width="1.1" opacity="0.45"/>
<line x1="591.0" y1="170.2" x2="353.6" y2="434.6" stroke="#E6A23C" stroke-width="1.1" opacity="0.45"/>
<line x1="591.0" y1="170.2" x2="167.9" y2="213.5" stroke="#E6A23C" stroke-width="1.1" opacity="0.45"/>
<line x1="591.0" y1="170.2" x2="341.6" y2="481.9" stroke="#E6A23C" stroke-width="1.1" opacity="0.45"/>
<line x1="808.0" y1="324.4" x2="687.5" y2="241.6" stroke="#E6A23C" stroke-width="1.1" opacity="0.45"/>
<line x1="239.1" y1="365.9" x2="353.6" y2="434.6" stroke="#E6A23C" stroke-width="1.1" opacity="0.45"/>
<line x1="239.1" y1="365.9" x2="167.9" y2="213.5" stroke="#E6A23C" stroke-width="1.1" opacity="0.45"/>
<line x1="353.6" y1="434.6" x2="167.9" y2="213.5" stroke="#E6A23C" stroke-width="1.1" opacity="0.45"/>
<line x1="353.6" y1="434.6" x2="341.6" y2="481.9" stroke="#E6A23C" stroke-width="1.1" opacity="0.45"/>
<line x1="736.0" y1="234.8" x2="797.4" y2="415.8" stroke="#E6A23C" stroke-width="1.1" opacity="0.45"/>
<circle cx="402.3" cy="448.5" r="4.8" fill="#B9B3A6" stroke="#8D877B" stroke-width="1"/>
<circle cx="289.0" cy="252.3" r="4.8" fill="#B9B3A6" stroke="#8D877B" stroke-width="1"/>
<circle cx="692.9" cy="377.8" r="4.8" fill="#B9B3A6" stroke="#8D877B" stroke-width="1"/>
<circle cx="469.0" cy="329.4" r="4.8" fill="#B9B3A6" stroke="#8D877B" stroke-width="1"/>
<circle cx="634.8" cy="309.8" r="4.8" fill="#B9B3A6" stroke="#8D877B" stroke-width="1"/>
<circle cx="560.1" cy="340.2" r="4.8" fill="#B9B3A6" stroke="#8D877B" stroke-width="1"/>
<circle cx="211.9" cy="276.9" r="4.8" fill="#B9B3A6" stroke="#8D877B" stroke-width="1"/>
<circle cx="539.2" cy="326.6" r="4.8" fill="#B9B3A6" stroke="#8D877B" stroke-width="1"/>
<circle cx="764.4" cy="299.1" r="7.5" fill="#E6A23C" stroke="#F4F0E6" stroke-width="1"/>
<circle cx="640.0" cy="190.1" r="7.5" fill="#E6A23C" stroke="#F4F0E6" stroke-width="1"/>
<circle cx="639.2" cy="368.9" r="4.8" fill="#B9B3A6" stroke="#8D877B" stroke-width="1"/>
<circle cx="298.5" cy="291.3" r="4.8" fill="#B9B3A6" stroke="#8D877B" stroke-width="1"/>
<circle cx="480.7" cy="456.4" r="7.5" fill="#E6A23C" stroke="#F4F0E6" stroke-width="1"/>
<circle cx="808.3" cy="235.3" r="7.5" fill="#E6A23C" stroke="#F4F0E6" stroke-width="1"/>
<circle cx="138.3" cy="328.0" r="4.8" fill="#B9B3A6" stroke="#8D877B" stroke-width="1"/>
<circle cx="436.7" cy="158.5" r="4.8" fill="#B9B3A6" stroke="#8D877B" stroke-width="1"/>
<circle cx="494.2" cy="431.1" r="7.5" fill="#E6A23C" stroke="#F4F0E6" stroke-width="1"/>
<circle cx="557.8" cy="206.7" r="5.6" fill="#C48A2E" stroke="#E6A23C" stroke-width="1"/>
<circle cx="348.6" cy="171.2" r="5.1" fill="#C48A2E" stroke="#E6A23C" stroke-width="1"/>
<circle cx="748.3" cy="274.2" r="4.6" fill="#C48A2E" stroke="#E6A23C" stroke-width="1"/>
<circle cx="117.2" cy="251.1" r="4.6" fill="#C48A2E" stroke="#E6A23C" stroke-width="1"/>
<circle cx="780.4" cy="334.5" r="4.8" fill="#B9B3A6" stroke="#8D877B" stroke-width="1"/>
<circle cx="233.7" cy="187.6" r="4.8" fill="#B9B3A6" stroke="#8D877B" stroke-width="1"/>
<circle cx="757.0" cy="324.9" r="4.8" fill="#B9B3A6" stroke="#8D877B" stroke-width="1"/>
<circle cx="652.6" cy="445.8" r="4.8" fill="#B9B3A6" stroke="#8D877B" stroke-width="1"/>
<circle cx="416.9" cy="337.9" r="4.8" fill="#B9B3A6" stroke="#8D877B" stroke-width="1"/>
<circle cx="795.9" cy="380.8" r="4.8" fill="#B9B3A6" stroke="#8D877B" stroke-width="1"/>
<circle cx="657.9" cy="281.6" r="4.6" fill="#C48A2E" stroke="#E6A23C" stroke-width="1"/>
<circle cx="438.4" cy="130.7" r="4.8" fill="#B9B3A6" stroke="#8D877B" stroke-width="1"/>
<circle cx="783.8" cy="354.7" r="4.8" fill="#B9B3A6" stroke="#8D877B" stroke-width="1"/>
<circle cx="291.1" cy="407.6" r="4.8" fill="#B9B3A6" stroke="#8D877B" stroke-width="1"/>
<circle cx="408.1" cy="427.5" r="4.8" fill="#B9B3A6" stroke="#8D877B" stroke-width="1"/>
<circle cx="269.5" cy="439.3" r="4.8" fill="#B9B3A6" stroke="#8D877B" stroke-width="1"/>
<circle cx="341.4" cy="284.9" r="4.8" fill="#B9B3A6" stroke="#8D877B" stroke-width="1"/>
<circle cx="669.6" cy="212.0" r="5.6" fill="#C48A2E" stroke="#E6A23C" stroke-width="1"/>
<circle cx="739.4" cy="255.6" r="4.8" fill="#B9B3A6" stroke="#8D877B" stroke-width="1"/>
<circle cx="237.5" cy="402.8" r="4.8" fill="#B9B3A6" stroke="#8D877B" stroke-width="1"/>
<circle cx="751.7" cy="208.7" r="4.8" fill="#B9B3A6" stroke="#8D877B" stroke-width="1"/>
<circle cx="566.0" cy="498.6" r="4.8" fill="#B9B3A6" stroke="#8D877B" stroke-width="1"/>
<circle cx="811.7" cy="193.0" r="4.8" fill="#B9B3A6" stroke="#8D877B" stroke-width="1"/>
<circle cx="313.3" cy="175.8" r="4.8" fill="#B9B3A6" stroke="#8D877B" stroke-width="1"/>
<circle cx="318.3" cy="359.3" r="4.8" fill="#B9B3A6" stroke="#8D877B" stroke-width="1"/>
<circle cx="176.0" cy="362.2" r="4.8" fill="#B9B3A6" stroke="#8D877B" stroke-width="1"/>
<circle cx="528.0" cy="275.4" r="4.8" fill="#B9B3A6" stroke="#8D877B" stroke-width="1"/>
<circle cx="552.3" cy="299.2" r="4.8" fill="#B9B3A6" stroke="#8D877B" stroke-width="1"/>
<circle cx="638.9" cy="472.6" r="4.8" fill="#B9B3A6" stroke="#8D877B" stroke-width="1"/>
<circle cx="765.9" cy="158.7" r="4.8" fill="#B9B3A6" stroke="#8D877B" stroke-width="1"/>
<circle cx="429.4" cy="187.9" r="4.7" fill="#C48A2E" stroke="#E6A23C" stroke-width="1"/>
<circle cx="476.4" cy="398.5" r="4.8" fill="#B9B3A6" stroke="#8D877B" stroke-width="1"/>
<circle cx="585.0" cy="439.2" r="4.8" fill="#B9B3A6" stroke="#8D877B" stroke-width="1"/>
<circle cx="882.8" cy="278.6" r="4.9" fill="#C48A2E" stroke="#E6A23C" stroke-width="1"/>
<circle cx="208.3" cy="384.9" r="4.8" fill="#B9B3A6" stroke="#8D877B" stroke-width="1"/>
<circle cx="258.8" cy="261.8" r="4.8" fill="#B9B3A6" stroke="#8D877B" stroke-width="1"/>
<circle cx="399.3" cy="154.0" r="4.8" fill="#B9B3A6" stroke="#8D877B" stroke-width="1"/>
<circle cx="728.5" cy="345.9" r="4.8" fill="#C48A2E" stroke="#E6A23C" stroke-width="1"/>
<circle cx="350.9" cy="263.8" r="4.8" fill="#B9B3A6" stroke="#8D877B" stroke-width="1"/>
<circle cx="591.0" cy="170.2" r="5.1" fill="#C48A2E" stroke="#E6A23C" stroke-width="1"/>
<circle cx="535.2" cy="185.0" r="4.8" fill="#B9B3A6" stroke="#8D877B" stroke-width="1"/>
<circle cx="696.7" cy="159.3" r="4.8" fill="#B9B3A6" stroke="#8D877B" stroke-width="1"/>
<circle cx="795.3" cy="295.0" r="4.8" fill="#B9B3A6" stroke="#8D877B" stroke-width="1"/>
<circle cx="167.6" cy="183.1" r="4.8" fill="#B9B3A6" stroke="#8D877B" stroke-width="1"/>
<circle cx="655.7" cy="404.6" r="4.8" fill="#B9B3A6" stroke="#8D877B" stroke-width="1"/>
<circle cx="726.6" cy="408.0" r="4.8" fill="#B9B3A6" stroke="#8D877B" stroke-width="1"/>
<circle cx="186.7" cy="257.2" r="4.8" fill="#B9B3A6" stroke="#8D877B" stroke-width="1"/>
<circle cx="427.6" cy="280.0" r="4.8" fill="#B9B3A6" stroke="#8D877B" stroke-width="1"/>
<circle cx="319.2" cy="128.6" r="4.8" fill="#B9B3A6" stroke="#8D877B" stroke-width="1"/>
<circle cx="361.0" cy="128.7" r="4.8" fill="#B9B3A6" stroke="#8D877B" stroke-width="1"/>
<circle cx="721.2" cy="447.2" r="4.8" fill="#B9B3A6" stroke="#8D877B" stroke-width="1"/>
<circle cx="316.6" cy="224.9" r="4.8" fill="#B9B3A6" stroke="#8D877B" stroke-width="1"/>
<circle cx="176.8" cy="314.6" r="4.8" fill="#B9B3A6" stroke="#8D877B" stroke-width="1"/>
<circle cx="173.3" cy="240.3" r="4.8" fill="#B9B3A6" stroke="#8D877B" stroke-width="1"/>
<circle cx="561.2" cy="137.0" r="4.8" fill="#B9B3A6" stroke="#8D877B" stroke-width="1"/>
<circle cx="808.0" cy="324.4" r="4.9" fill="#C48A2E" stroke="#E6A23C" stroke-width="1"/>
<circle cx="144.9" cy="281.7" r="4.8" fill="#B9B3A6" stroke="#8D877B" stroke-width="1"/>
<circle cx="517.0" cy="157.6" r="4.8" fill="#B9B3A6" stroke="#8D877B" stroke-width="1"/>
<circle cx="790.3" cy="268.3" r="4.8" fill="#B9B3A6" stroke="#8D877B" stroke-width="1"/>
<circle cx="281.6" cy="303.4" r="4.8" fill="#B9B3A6" stroke="#8D877B" stroke-width="1"/>
<circle cx="687.5" cy="241.6" r="4.8" fill="#C48A2E" stroke="#E6A23C" stroke-width="1"/>
<circle cx="435.7" cy="305.1" r="4.8" fill="#B9B3A6" stroke="#8D877B" stroke-width="1"/>
<circle cx="739.0" cy="375.3" r="4.8" fill="#B9B3A6" stroke="#8D877B" stroke-width="1"/>
<circle cx="239.1" cy="365.9" r="5.0" fill="#C48A2E" stroke="#E6A23C" stroke-width="1"/>
<circle cx="343.9" cy="392.8" r="4.8" fill="#B9B3A6" stroke="#8D877B" stroke-width="1"/>
<circle cx="398.4" cy="375.5" r="4.8" fill="#B9B3A6" stroke="#8D877B" stroke-width="1"/>
<circle cx="187.0" cy="336.0" r="4.8" fill="#B9B3A6" stroke="#8D877B" stroke-width="1"/>
<circle cx="475.7" cy="169.9" r="4.8" fill="#B9B3A6" stroke="#8D877B" stroke-width="1"/>
<circle cx="353.6" cy="434.6" r="4.8" fill="#C48A2E" stroke="#E6A23C" stroke-width="1"/>
<circle cx="406.3" cy="476.1" r="4.8" fill="#B9B3A6" stroke="#8D877B" stroke-width="1"/>
<circle cx="461.5" cy="483.7" r="4.8" fill="#B9B3A6" stroke="#8D877B" stroke-width="1"/>
<circle cx="502.0" cy="485.1" r="4.8" fill="#B9B3A6" stroke="#8D877B" stroke-width="1"/>
<circle cx="553.6" cy="397.8" r="4.8" fill="#B9B3A6" stroke="#8D877B" stroke-width="1"/>
<circle cx="736.0" cy="234.8" r="4.7" fill="#C48A2E" stroke="#E6A23C" stroke-width="1"/>
<circle cx="517.9" cy="390.7" r="4.8" fill="#B9B3A6" stroke="#8D877B" stroke-width="1"/>
<circle cx="707.9" cy="200.4" r="4.8" fill="#B9B3A6" stroke="#8D877B" stroke-width="1"/>
<circle cx="164.6" cy="265.4" r="4.8" fill="#B9B3A6" stroke="#8D877B" stroke-width="1"/>
<circle cx="296.7" cy="374.2" r="4.8" fill="#B9B3A6" stroke="#8D877B" stroke-width="1"/>
<circle cx="251.0" cy="421.5" r="4.8" fill="#B9B3A6" stroke="#8D877B" stroke-width="1"/>
<circle cx="602.2" cy="251.5" r="4.8" fill="#B9B3A6" stroke="#8D877B" stroke-width="1"/>
<circle cx="629.1" cy="335.7" r="4.8" fill="#B9B3A6" stroke="#8D877B" stroke-width="1"/>
<circle cx="513.2" cy="125.6" r="4.8" fill="#B9B3A6" stroke="#8D877B" stroke-width="1"/>
<circle cx="229.0" cy="162.1" r="4.8" fill="#B9B3A6" stroke="#8D877B" stroke-width="1"/>
<circle cx="167.9" cy="213.5" r="5.6" fill="#C48A2E" stroke="#E6A23C" stroke-width="1"/>
<circle cx="371.7" cy="397.5" r="4.8" fill="#B9B3A6" stroke="#8D877B" stroke-width="1"/>
<circle cx="797.4" cy="415.8" r="4.6" fill="#C48A2E" stroke="#E6A23C" stroke-width="1"/>
<circle cx="342.3" cy="314.8" r="4.8" fill="#B9B3A6" stroke="#8D877B" stroke-width="1"/>
<circle cx="248.4" cy="211.6" r="4.8" fill="#B9B3A6" stroke="#8D877B" stroke-width="1"/>
<circle cx="251.6" cy="324.2" r="4.8" fill="#B9B3A6" stroke="#8D877B" stroke-width="1"/>
<circle cx="164.7" cy="382.0" r="4.8" fill="#B9B3A6" stroke="#8D877B" stroke-width="1"/>
<circle cx="124.8" cy="316.0" r="4.8" fill="#B9B3A6" stroke="#8D877B" stroke-width="1"/>
<circle cx="294.9" cy="193.9" r="4.8" fill="#B9B3A6" stroke="#8D877B" stroke-width="1"/>
<circle cx="575.7" cy="364.7" r="4.8" fill="#B9B3A6" stroke="#8D877B" stroke-width="1"/>
<circle cx="224.6" cy="228.1" r="4.8" fill="#B9B3A6" stroke="#8D877B" stroke-width="1"/>
<circle cx="341.6" cy="481.9" r="4.7" fill="#C48A2E" stroke="#E6A23C" stroke-width="1"/>
<circle cx="218.7" cy="341.2" r="4.8" fill="#B9B3A6" stroke="#8D877B" stroke-width="1"/>
<circle cx="619.6" cy="129.0" r="4.8" fill="#B9B3A6" stroke="#8D877B" stroke-width="1"/>
<circle cx="200.5" cy="424.3" r="4.6" fill="#C48A2E" stroke="#E6A23C" stroke-width="1"/>
<circle cx="410.3" cy="266.6" r="4.8" fill="#B9B3A6" stroke="#8D877B" stroke-width="1"/>
<circle cx="544.2" cy="233.6" r="4.8" fill="#B9B3A6" stroke="#8D877B" stroke-width="1"/>
<circle cx="338.7" cy="237.5" r="4.8" fill="#B9B3A6" stroke="#8D877B" stroke-width="1"/>
<circle cx="321.3" cy="424.3" r="4.8" fill="#B9B3A6" stroke="#8D877B" stroke-width="1"/>
<circle cx="597.5" cy="415.3" r="4.8" fill="#B9B3A6" stroke="#8D877B" stroke-width="1"/>
<circle cx="365.7" cy="332.3" r="4.8" fill="#B9B3A6" stroke="#8D877B" stroke-width="1"/>
<circle cx="254.2" cy="139.1" r="4.8" fill="#B9B3A6" stroke="#8D877B" stroke-width="1"/>
<circle cx="457.3" cy="357.5" r="4.8" fill="#B9B3A6" stroke="#8D877B" stroke-width="1"/>
<circle cx="405.6" cy="307.2" r="4.8" fill="#B9B3A6" stroke="#8D877B" stroke-width="1"/>
<circle cx="496.4" cy="232.3" r="4.8" fill="#B9B3A6" stroke="#8D877B" stroke-width="1"/>
<circle cx="682.0" cy="424.6" r="4.8" fill="#B9B3A6" stroke="#8D877B" stroke-width="1"/>
<circle cx="545.6" cy="459.8" r="4.8" fill="#B9B3A6" stroke="#8D877B" stroke-width="1"/>
<circle cx="495.0" cy="341.8" r="4.8" fill="#B9B3A6" stroke="#8D877B" stroke-width="1"/>
<circle cx="581.9" cy="314.7" r="4.8" fill="#B9B3A6" stroke="#8D877B" stroke-width="1"/>
<circle cx="433.8" cy="399.9" r="4.8" fill="#B9B3A6" stroke="#8D877B" stroke-width="1"/>
<circle cx="589.3" cy="223.8" r="4.8" fill="#B9B3A6" stroke="#8D877B" stroke-width="1"/>
<circle cx="496.7" cy="267.7" r="4.8" fill="#B9B3A6" stroke="#8D877B" stroke-width="1"/>
<circle cx="664.8" cy="138.8" r="4.8" fill="#B9B3A6" stroke="#8D877B" stroke-width="1"/>
<circle cx="413.5" cy="224.9" r="4.8" fill="#B9B3A6" stroke="#8D877B" stroke-width="1"/>
<circle cx="468.6" cy="87.6" r="4.8" fill="#B9B3A6" stroke="#8D877B" stroke-width="1"/>
<circle cx="608.0" cy="81.4" r="4.8" fill="#B9B3A6" stroke="#8D877B" stroke-width="1"/>
<circle cx="531.9" cy="81.4" r="4.8" fill="#B9B3A6" stroke="#8D877B" stroke-width="1"/>
<circle cx="317.7" cy="460.2" r="4.8" fill="#B9B3A6" stroke="#8D877B" stroke-width="1"/>
<circle cx="479.8" cy="297.5" r="4.8" fill="#B9B3A6" stroke="#8D877B" stroke-width="1"/>
<circle cx="599.6" cy="465.6" r="4.8" fill="#B9B3A6" stroke="#8D877B" stroke-width="1"/>
<circle cx="367.1" cy="208.4" r="4.8" fill="#B9B3A6" stroke="#8D877B" stroke-width="1"/>
<circle cx="455.2" cy="221.7" r="4.8" fill="#B9B3A6" stroke="#8D877B" stroke-width="1"/>
<circle cx="514.4" cy="370.3" r="4.8" fill="#B9B3A6" stroke="#8D877B" stroke-width="1"/>
<circle cx="322.1" cy="336.1" r="4.8" fill="#B9B3A6" stroke="#8D877B" stroke-width="1"/>
<circle cx="180.7" cy="294.4" r="4.8" fill="#B9B3A6" stroke="#8D877B" stroke-width="1"/>
<circle cx="599.1" cy="275.7" r="4.8" fill="#B9B3A6" stroke="#8D877B" stroke-width="1"/>
<circle cx="451.9" cy="436.5" r="4.8" fill="#B9B3A6" stroke="#8D877B" stroke-width="1"/>
<circle cx="456.5" cy="247.0" r="4.8" fill="#B9B3A6" stroke="#8D877B" stroke-width="1"/>
<text x="774.4" y="291.1" fill="#F4F0E6" font-family="Georgia, serif" font-size="11">EasyBuild framework developer</text>
<text x="650.0" y="182.1" fill="#F4F0E6" font-family="Georgia, serif" font-size="11">A Spack person reading the port stor</text>
<text x="490.7" y="448.4" fill="#F4F0E6" font-family="Georgia, serif" font-size="11">A non-native English reader</text>
<text x="818.3" y="227.3" fill="#F4F0E6" font-family="Georgia, serif" font-size="11">Ask-corpus person</text>
<text x="504.2" y="423.1" fill="#F4F0E6" font-family="Georgia, serif" font-size="11">Someone doing the tutorial on a Satu</text>
<text x="56" y="22" fill="#E6A23C" font-family="Georgia, serif" font-size="15">landfold embed of 148 live claims</text>
<text x="56" y="38" fill="#8D877B" font-family="Georgia, serif" font-size="12">64-D hashed 3-grams, landfold embed -D 64 -d 2 --center, stress 0.100. Cream: pack. Gold: docs island. Rings: seeds.</text>
</svg>