<?xml version="1.0" encoding="UTF-8"?>
<svg xmlns="http://www.w3.org/2000/svg" viewBox="0 0 1000 580" role="img" aria-label="landfold of the seat link graph">
<rect width="1000" height="580" fill="#0B0B0A"/>
<line x1="611.5" y1="341.8" x2="617.5" y2="340.8" stroke="#8D877B" stroke-width="1.1" opacity="0.40"/>
<line x1="611.5" y1="341.8" x2="615.6" y2="339.1" stroke="#8D877B" stroke-width="1.1" opacity="0.40"/>
<line x1="611.5" y1="341.8" x2="617.6" y2="339.8" stroke="#8D877B" stroke-width="1.1" opacity="0.40"/>
<line x1="611.5" y1="341.8" x2="655.9" y2="333.7" stroke="#8D877B" stroke-width="1.1" opacity="0.40"/>
<line x1="611.5" y1="341.8" x2="635.4" y2="313.8" stroke="#8D877B" stroke-width="1.1" opacity="0.40"/>
<line x1="611.5" y1="341.8" x2="618.3" y2="318.6" stroke="#8D877B" stroke-width="1.1" opacity="0.40"/>
<line x1="611.5" y1="341.8" x2="653.2" y2="322.6" stroke="#8D877B" stroke-width="1.1" opacity="0.40"/>
<line x1="611.5" y1="341.8" x2="536.3" y2="375.1" stroke="#8D877B" stroke-width="1.1" opacity="0.40"/>
<line x1="617.5" y1="340.8" x2="615.6" y2="339.1" stroke="#8D877B" stroke-width="1.1" opacity="0.40"/>
<line x1="617.5" y1="340.8" x2="617.6" y2="339.8" stroke="#8D877B" stroke-width="1.1" opacity="0.40"/>
<line x1="617.5" y1="340.8" x2="655.9" y2="333.7" stroke="#8D877B" stroke-width="1.1" opacity="0.40"/>
<line x1="617.5" y1="340.8" x2="635.4" y2="313.8" stroke="#8D877B" stroke-width="1.1" opacity="0.40"/>
<line x1="617.5" y1="340.8" x2="618.3" y2="318.6" stroke="#8D877B" stroke-width="1.1" opacity="0.40"/>
<line x1="617.5" y1="340.8" x2="653.2" y2="322.6" stroke="#8D877B" stroke-width="1.1" opacity="0.40"/>
<line x1="575.3" y1="189.7" x2="575.2" y2="191.2" stroke="#8D877B" stroke-width="1.1" opacity="0.40"/>
<line x1="575.3" y1="189.7" x2="603.8" y2="173.0" stroke="#8D877B" stroke-width="1.1" opacity="0.40"/>
<line x1="575.3" y1="189.7" x2="598.5" y2="218.1" stroke="#8D877B" stroke-width="1.1" opacity="0.40"/>
<line x1="575.3" y1="189.7" x2="612.6" y2="175.8" stroke="#8D877B" stroke-width="1.1" opacity="0.40"/>
<line x1="575.3" y1="189.7" x2="616.4" y2="189.8" stroke="#8D877B" stroke-width="1.1" opacity="0.40"/>
<line x1="575.3" y1="189.7" x2="616.4" y2="205.7" stroke="#8D877B" stroke-width="1.1" opacity="0.40"/>
<line x1="575.3" y1="189.7" x2="579.4" y2="192.5" stroke="#8D877B" stroke-width="1.1" opacity="0.40"/>
<line x1="575.3" y1="189.7" x2="632.0" y2="155.5" stroke="#8D877B" stroke-width="1.1" opacity="0.40"/>
<line x1="495.7" y1="430.4" x2="583.3" y2="460.1" stroke="#8D877B" stroke-width="1.1" opacity="0.40"/>
<line x1="495.7" y1="430.4" x2="536.0" y2="441.1" stroke="#8D877B" stroke-width="1.1" opacity="0.40"/>
<line x1="495.7" y1="430.4" x2="505.6" y2="389.5" stroke="#8D877B" stroke-width="1.1" opacity="0.40"/>
<line x1="495.7" y1="430.4" x2="496.4" y2="402.9" stroke="#8D877B" stroke-width="1.1" opacity="0.40"/>
<line x1="495.7" y1="430.4" x2="558.5" y2="433.4" stroke="#8D877B" stroke-width="1.1" opacity="0.40"/>
<line x1="575.2" y1="191.2" x2="603.8" y2="173.0" stroke="#8D877B" stroke-width="1.1" opacity="0.40"/>
<line x1="575.2" y1="191.2" x2="598.5" y2="218.1" stroke="#8D877B" stroke-width="1.1" opacity="0.40"/>
<line x1="575.2" y1="191.2" x2="612.6" y2="175.8" stroke="#8D877B" stroke-width="1.1" opacity="0.40"/>
<line x1="575.2" y1="191.2" x2="616.4" y2="189.8" stroke="#8D877B" stroke-width="1.1" opacity="0.40"/>
<line x1="575.2" y1="191.2" x2="616.4" y2="205.7" stroke="#8D877B" stroke-width="1.1" opacity="0.40"/>
<line x1="575.2" y1="191.2" x2="579.4" y2="192.5" stroke="#8D877B" stroke-width="1.1" opacity="0.40"/>
<line x1="575.2" y1="191.2" x2="632.0" y2="155.5" stroke="#8D877B" stroke-width="1.1" opacity="0.40"/>
<line x1="615.6" y1="339.1" x2="617.6" y2="339.8" stroke="#8D877B" stroke-width="1.1" opacity="0.40"/>
<line x1="615.6" y1="339.1" x2="655.9" y2="333.7" stroke="#8D877B" stroke-width="1.1" opacity="0.40"/>
<line x1="615.6" y1="339.1" x2="635.4" y2="313.8" stroke="#8D877B" stroke-width="1.1" opacity="0.40"/>
<line x1="615.6" y1="339.1" x2="618.3" y2="318.6" stroke="#8D877B" stroke-width="1.1" opacity="0.40"/>
<line x1="615.6" y1="339.1" x2="653.2" y2="322.6" stroke="#8D877B" stroke-width="1.1" opacity="0.40"/>
<line x1="603.8" y1="173.0" x2="612.6" y2="175.8" stroke="#8D877B" stroke-width="1.1" opacity="0.40"/>
<line x1="603.8" y1="173.0" x2="616.4" y2="189.8" stroke="#8D877B" stroke-width="1.1" opacity="0.40"/>
<line x1="603.8" y1="173.0" x2="616.4" y2="205.7" stroke="#8D877B" stroke-width="1.1" opacity="0.40"/>
<line x1="603.8" y1="173.0" x2="579.4" y2="192.5" stroke="#8D877B" stroke-width="1.1" opacity="0.40"/>
<line x1="603.8" y1="173.0" x2="632.0" y2="155.5" stroke="#8D877B" stroke-width="1.1" opacity="0.40"/>
<line x1="583.3" y1="460.1" x2="536.0" y2="441.1" stroke="#8D877B" stroke-width="1.1" opacity="0.40"/>
<line x1="583.3" y1="460.1" x2="558.5" y2="433.4" stroke="#8D877B" stroke-width="1.1" opacity="0.40"/>
<line x1="536.0" y1="441.1" x2="496.4" y2="402.9" stroke="#8D877B" stroke-width="1.1" opacity="0.40"/>
<line x1="536.0" y1="441.1" x2="536.3" y2="375.1" stroke="#8D877B" stroke-width="1.1" opacity="0.40"/>
<line x1="536.0" y1="441.1" x2="558.5" y2="433.4" stroke="#8D877B" stroke-width="1.1" opacity="0.40"/>
<line x1="505.6" y1="389.5" x2="496.4" y2="402.9" stroke="#8D877B" stroke-width="1.1" opacity="0.40"/>
<line x1="505.6" y1="389.5" x2="536.3" y2="375.1" stroke="#8D877B" stroke-width="1.1" opacity="0.40"/>
<line x1="505.6" y1="389.5" x2="558.5" y2="433.4" stroke="#8D877B" stroke-width="1.1" opacity="0.40"/>
<line x1="617.6" y1="339.8" x2="655.9" y2="333.7" stroke="#8D877B" stroke-width="1.1" opacity="0.40"/>
<line x1="617.6" y1="339.8" x2="635.4" y2="313.8" stroke="#8D877B" stroke-width="1.1" opacity="0.40"/>
<line x1="617.6" y1="339.8" x2="618.3" y2="318.6" stroke="#8D877B" stroke-width="1.1" opacity="0.40"/>
<line x1="617.6" y1="339.8" x2="653.2" y2="322.6" stroke="#8D877B" stroke-width="1.1" opacity="0.40"/>
<line x1="598.5" y1="218.1" x2="616.4" y2="189.8" stroke="#8D877B" stroke-width="1.1" opacity="0.40"/>
<line x1="598.5" y1="218.1" x2="616.4" y2="205.7" stroke="#8D877B" stroke-width="1.1" opacity="0.40"/>
<line x1="598.5" y1="218.1" x2="579.4" y2="192.5" stroke="#8D877B" stroke-width="1.1" opacity="0.40"/>
<line x1="655.9" y1="333.7" x2="635.4" y2="313.8" stroke="#8D877B" stroke-width="1.1" opacity="0.40"/>
<line x1="655.9" y1="333.7" x2="618.3" y2="318.6" stroke="#8D877B" stroke-width="1.1" opacity="0.40"/>
<line x1="655.9" y1="333.7" x2="653.2" y2="322.6" stroke="#8D877B" stroke-width="1.1" opacity="0.40"/>
<line x1="635.4" y1="313.8" x2="618.3" y2="318.6" stroke="#8D877B" stroke-width="1.1" opacity="0.40"/>
<line x1="635.4" y1="313.8" x2="653.2" y2="322.6" stroke="#8D877B" stroke-width="1.1" opacity="0.40"/>
<line x1="612.6" y1="175.8" x2="616.4" y2="189.8" stroke="#8D877B" stroke-width="1.1" opacity="0.40"/>
<line x1="612.6" y1="175.8" x2="616.4" y2="205.7" stroke="#8D877B" stroke-width="1.1" opacity="0.40"/>
<line x1="612.6" y1="175.8" x2="579.4" y2="192.5" stroke="#8D877B" stroke-width="1.1" opacity="0.40"/>
<line x1="612.6" y1="175.8" x2="632.0" y2="155.5" stroke="#8D877B" stroke-width="1.1" opacity="0.40"/>
<line x1="618.3" y1="318.6" x2="653.2" y2="322.6" stroke="#8D877B" stroke-width="1.1" opacity="0.40"/>
<line x1="616.4" y1="189.8" x2="616.4" y2="205.7" stroke="#8D877B" stroke-width="1.1" opacity="0.40"/>
<line x1="616.4" y1="189.8" x2="579.4" y2="192.5" stroke="#8D877B" stroke-width="1.1" opacity="0.40"/>
<line x1="616.4" y1="205.7" x2="579.4" y2="192.5" stroke="#8D877B" stroke-width="1.1" opacity="0.40"/>
<line x1="616.4" y1="205.7" x2="632.0" y2="155.5" stroke="#8D877B" stroke-width="1.1" opacity="0.40"/>
<line x1="496.4" y1="402.9" x2="536.3" y2="375.1" stroke="#8D877B" stroke-width="1.1" opacity="0.40"/>
<circle cx="378.2" cy="472.9" r="4.8" fill="#F4F0E6" stroke="#B9B3A6" stroke-width="1"/>
<circle cx="451.4" cy="323.1" r="4.8" fill="#F4F0E6" stroke="#B9B3A6" stroke-width="1"/>
<circle cx="437.7" cy="203.8" r="4.8" fill="#F4F0E6" stroke="#B9B3A6" stroke-width="1"/>
<circle cx="418.2" cy="361.2" r="4.8" fill="#F4F0E6" stroke="#B9B3A6" stroke-width="1"/>
<circle cx="747.6" cy="217.4" r="4.8" fill="#F4F0E6" stroke="#B9B3A6" stroke-width="1"/>
<circle cx="143.5" cy="306.5" r="4.8" fill="#F4F0E6" stroke="#B9B3A6" stroke-width="1"/>
<circle cx="577.1" cy="262.0" r="4.8" fill="#F4F0E6" stroke="#B9B3A6" stroke-width="1"/>
<circle cx="728.1" cy="224.3" r="4.8" fill="#F4F0E6" stroke="#B9B3A6" stroke-width="1"/>
<circle cx="384.5" cy="302.5" r="4.8" fill="#F4F0E6" stroke="#B9B3A6" stroke-width="1"/>
<circle cx="658.3" cy="255.4" r="4.8" fill="#F4F0E6" stroke="#B9B3A6" stroke-width="1"/>
<circle cx="728.0" cy="295.3" r="4.8" fill="#F4F0E6" stroke="#B9B3A6" stroke-width="1"/>
<circle cx="558.5" cy="490.6" r="4.8" fill="#F4F0E6" stroke="#B9B3A6" stroke-width="1"/>
<circle cx="751.5" cy="340.9" r="4.8" fill="#F4F0E6" stroke="#B9B3A6" stroke-width="1"/>
<circle cx="872.5" cy="274.7" r="4.8" fill="#F4F0E6" stroke="#B9B3A6" stroke-width="1"/>
<circle cx="487.9" cy="381.0" r="4.8" fill="#F4F0E6" stroke="#B9B3A6" stroke-width="1"/>
<circle cx="674.1" cy="389.7" r="4.8" fill="#F4F0E6" stroke="#B9B3A6" stroke-width="1"/>
<circle cx="500.7" cy="278.9" r="4.8" fill="#F4F0E6" stroke="#B9B3A6" stroke-width="1"/>
<circle cx="544.5" cy="388.3" r="4.8" fill="#F4F0E6" stroke="#B9B3A6" stroke-width="1"/>
<circle cx="769.6" cy="329.2" r="4.8" fill="#F4F0E6" stroke="#B9B3A6" stroke-width="1"/>
<circle cx="809.6" cy="316.5" r="4.8" fill="#F4F0E6" stroke="#B9B3A6" stroke-width="1"/>
<circle cx="462.8" cy="140.9" r="4.8" fill="#F4F0E6" stroke="#B9B3A6" stroke-width="1"/>
<circle cx="350.4" cy="365.8" r="4.8" fill="#F4F0E6" stroke="#B9B3A6" stroke-width="1"/>
<circle cx="483.2" cy="340.0" r="4.8" fill="#F4F0E6" stroke="#B9B3A6" stroke-width="1"/>
<circle cx="241.8" cy="373.3" r="4.8" fill="#F4F0E6" stroke="#B9B3A6" stroke-width="1"/>
<circle cx="714.4" cy="392.6" r="4.8" fill="#F4F0E6" stroke="#B9B3A6" stroke-width="1"/>
<circle cx="355.1" cy="318.8" r="4.8" fill="#F4F0E6" stroke="#B9B3A6" stroke-width="1"/>
<circle cx="766.4" cy="420.6" r="4.8" fill="#F4F0E6" stroke="#B9B3A6" stroke-width="1"/>
<circle cx="736.4" cy="404.7" r="4.8" fill="#F4F0E6" stroke="#B9B3A6" stroke-width="1"/>
<circle cx="350.8" cy="289.1" r="4.8" fill="#F4F0E6" stroke="#B9B3A6" stroke-width="1"/>
<circle cx="333.1" cy="312.2" r="4.8" fill="#F4F0E6" stroke="#B9B3A6" stroke-width="1"/>
<circle cx="341.6" cy="220.9" r="4.8" fill="#F4F0E6" stroke="#B9B3A6" stroke-width="1"/>
<circle cx="864.5" cy="249.7" r="4.8" fill="#F4F0E6" stroke="#B9B3A6" stroke-width="1"/>
<circle cx="349.1" cy="416.8" r="4.8" fill="#F4F0E6" stroke="#B9B3A6" stroke-width="1"/>
<circle cx="534.6" cy="133.4" r="4.8" fill="#F4F0E6" stroke="#B9B3A6" stroke-width="1"/>
<circle cx="583.8" cy="434.4" r="4.8" fill="#F4F0E6" stroke="#B9B3A6" stroke-width="1"/>
<circle cx="567.7" cy="407.2" r="4.8" fill="#F4F0E6" stroke="#B9B3A6" stroke-width="1"/>
<circle cx="474.4" cy="487.3" r="4.8" fill="#F4F0E6" stroke="#B9B3A6" stroke-width="1"/>
<circle cx="724.3" cy="446.5" r="4.8" fill="#F4F0E6" stroke="#B9B3A6" stroke-width="1"/>
<circle cx="856.2" cy="228.3" r="4.8" fill="#F4F0E6" stroke="#B9B3A6" stroke-width="1"/>
<circle cx="756.0" cy="266.5" r="4.8" fill="#F4F0E6" stroke="#B9B3A6" stroke-width="1"/>
<circle cx="851.5" cy="355.0" r="4.8" fill="#F4F0E6" stroke="#B9B3A6" stroke-width="1"/>
<circle cx="361.5" cy="445.9" r="4.8" fill="#F4F0E6" stroke="#B9B3A6" stroke-width="1"/>
<circle cx="652.3" cy="173.5" r="4.8" fill="#F4F0E6" stroke="#B9B3A6" stroke-width="1"/>
<circle cx="860.3" cy="336.7" r="4.8" fill="#F4F0E6" stroke="#B9B3A6" stroke-width="1"/>
<circle cx="835.6" cy="330.5" r="4.8" fill="#F4F0E6" stroke="#B9B3A6" stroke-width="1"/>
<circle cx="419.6" cy="429.7" r="4.8" fill="#F4F0E6" stroke="#B9B3A6" stroke-width="1"/>
<circle cx="506.4" cy="229.6" r="4.8" fill="#F4F0E6" stroke="#B9B3A6" stroke-width="1"/>
<circle cx="718.0" cy="428.3" r="4.8" fill="#F4F0E6" stroke="#B9B3A6" stroke-width="1"/>
<circle cx="440.7" cy="241.0" r="4.8" fill="#F4F0E6" stroke="#B9B3A6" stroke-width="1"/>
<circle cx="721.1" cy="214.0" r="4.8" fill="#F4F0E6" stroke="#B9B3A6" stroke-width="1"/>
<circle cx="565.0" cy="394.9" r="4.8" fill="#F4F0E6" stroke="#B9B3A6" stroke-width="1"/>
<circle cx="795.2" cy="329.0" r="4.8" fill="#F4F0E6" stroke="#B9B3A6" stroke-width="1"/>
<circle cx="688.8" cy="438.4" r="4.8" fill="#F4F0E6" stroke="#B9B3A6" stroke-width="1"/>
<circle cx="282.3" cy="406.6" r="4.8" fill="#F4F0E6" stroke="#B9B3A6" stroke-width="1"/>
<circle cx="524.4" cy="328.5" r="4.8" fill="#F4F0E6" stroke="#B9B3A6" stroke-width="1"/>
<circle cx="241.1" cy="275.3" r="4.8" fill="#F4F0E6" stroke="#B9B3A6" stroke-width="1"/>
<circle cx="326.5" cy="303.4" r="4.8" fill="#F4F0E6" stroke="#B9B3A6" stroke-width="1"/>
<circle cx="393.9" cy="398.3" r="4.8" fill="#F4F0E6" stroke="#B9B3A6" stroke-width="1"/>
<circle cx="826.1" cy="362.8" r="4.8" fill="#F4F0E6" stroke="#B9B3A6" stroke-width="1"/>
<circle cx="822.9" cy="342.7" r="4.8" fill="#F4F0E6" stroke="#B9B3A6" stroke-width="1"/>
<circle cx="384.7" cy="387.7" r="4.8" fill="#F4F0E6" stroke="#B9B3A6" stroke-width="1"/>
<circle cx="432.1" cy="354.6" r="4.8" fill="#F4F0E6" stroke="#B9B3A6" stroke-width="1"/>
<circle cx="536.9" cy="410.9" r="4.8" fill="#F4F0E6" stroke="#B9B3A6" stroke-width="1"/>
<circle cx="435.9" cy="462.5" r="4.8" fill="#F4F0E6" stroke="#B9B3A6" stroke-width="1"/>
<circle cx="294.2" cy="354.4" r="4.8" fill="#F4F0E6" stroke="#B9B3A6" stroke-width="1"/>
<circle cx="346.3" cy="246.5" r="4.8" fill="#F4F0E6" stroke="#B9B3A6" stroke-width="1"/>
<circle cx="332.0" cy="293.8" r="4.8" fill="#F4F0E6" stroke="#B9B3A6" stroke-width="1"/>
<circle cx="374.3" cy="314.0" r="4.8" fill="#F4F0E6" stroke="#B9B3A6" stroke-width="1"/>
<circle cx="355.1" cy="305.0" r="4.8" fill="#F4F0E6" stroke="#B9B3A6" stroke-width="1"/>
<circle cx="684.7" cy="415.8" r="4.8" fill="#F4F0E6" stroke="#B9B3A6" stroke-width="1"/>
<circle cx="537.3" cy="316.4" r="4.8" fill="#F4F0E6" stroke="#B9B3A6" stroke-width="1"/>
<circle cx="514.6" cy="242.3" r="4.8" fill="#F4F0E6" stroke="#B9B3A6" stroke-width="1"/>
<circle cx="371.0" cy="294.4" r="4.8" fill="#F4F0E6" stroke="#B9B3A6" stroke-width="1"/>
<circle cx="236.7" cy="420.7" r="4.8" fill="#F4F0E6" stroke="#B9B3A6" stroke-width="1"/>
<circle cx="656.4" cy="270.1" r="4.8" fill="#F4F0E6" stroke="#B9B3A6" stroke-width="1"/>
<circle cx="201.5" cy="322.3" r="4.8" fill="#F4F0E6" stroke="#B9B3A6" stroke-width="1"/>
<circle cx="287.3" cy="252.4" r="4.8" fill="#F4F0E6" stroke="#B9B3A6" stroke-width="1"/>
<circle cx="189.9" cy="382.8" r="4.8" fill="#F4F0E6" stroke="#B9B3A6" stroke-width="1"/>
<circle cx="780.3" cy="350.3" r="4.8" fill="#F4F0E6" stroke="#B9B3A6" stroke-width="1"/>
<circle cx="488.9" cy="313.4" r="4.8" fill="#F4F0E6" stroke="#B9B3A6" stroke-width="1"/>
<circle cx="388.3" cy="192.3" r="4.8" fill="#F4F0E6" stroke="#B9B3A6" stroke-width="1"/>
<circle cx="669.3" cy="119.7" r="4.8" fill="#F4F0E6" stroke="#B9B3A6" stroke-width="1"/>
<circle cx="800.5" cy="257.5" r="4.8" fill="#F4F0E6" stroke="#B9B3A6" stroke-width="1"/>
<circle cx="307.3" cy="386.2" r="4.8" fill="#F4F0E6" stroke="#B9B3A6" stroke-width="1"/>
<circle cx="701.6" cy="404.8" r="4.8" fill="#F4F0E6" stroke="#B9B3A6" stroke-width="1"/>
<circle cx="846.2" cy="259.2" r="4.8" fill="#F4F0E6" stroke="#B9B3A6" stroke-width="1"/>
<circle cx="584.0" cy="276.1" r="4.8" fill="#F4F0E6" stroke="#B9B3A6" stroke-width="1"/>
<circle cx="476.2" cy="276.5" r="4.8" fill="#F4F0E6" stroke="#B9B3A6" stroke-width="1"/>
<circle cx="736.6" cy="265.5" r="4.8" fill="#F4F0E6" stroke="#B9B3A6" stroke-width="1"/>
<circle cx="531.9" cy="286.3" r="4.8" fill="#F4F0E6" stroke="#B9B3A6" stroke-width="1"/>
<circle cx="737.9" cy="422.5" r="4.8" fill="#F4F0E6" stroke="#B9B3A6" stroke-width="1"/>
<circle cx="201.7" cy="205.3" r="4.8" fill="#F4F0E6" stroke="#B9B3A6" stroke-width="1"/>
<circle cx="245.6" cy="341.6" r="4.8" fill="#F4F0E6" stroke="#B9B3A6" stroke-width="1"/>
<circle cx="486.4" cy="218.7" r="4.8" fill="#F4F0E6" stroke="#B9B3A6" stroke-width="1"/>
<circle cx="295.4" cy="447.0" r="4.8" fill="#F4F0E6" stroke="#B9B3A6" stroke-width="1"/>
<circle cx="584.0" cy="109.4" r="4.8" fill="#F4F0E6" stroke="#B9B3A6" stroke-width="1"/>
<circle cx="391.1" cy="226.1" r="4.8" fill="#F4F0E6" stroke="#B9B3A6" stroke-width="1"/>
<circle cx="223.9" cy="299.2" r="4.8" fill="#F4F0E6" stroke="#B9B3A6" stroke-width="1"/>
<circle cx="229.9" cy="241.6" r="4.8" fill="#F4F0E6" stroke="#B9B3A6" stroke-width="1"/>
<circle cx="269.2" cy="159.8" r="4.8" fill="#F4F0E6" stroke="#B9B3A6" stroke-width="1"/>
<circle cx="167.2" cy="347.8" r="4.8" fill="#F4F0E6" stroke="#B9B3A6" stroke-width="1"/>
<circle cx="666.0" cy="239.7" r="4.8" fill="#F4F0E6" stroke="#B9B3A6" stroke-width="1"/>
<circle cx="427.1" cy="244.6" r="4.8" fill="#F4F0E6" stroke="#B9B3A6" stroke-width="1"/>
<circle cx="175.1" cy="273.0" r="4.8" fill="#F4F0E6" stroke="#B9B3A6" stroke-width="1"/>
<circle cx="762.2" cy="174.7" r="4.8" fill="#F4F0E6" stroke="#B9B3A6" stroke-width="1"/>
<circle cx="482.4" cy="179.3" r="4.8" fill="#F4F0E6" stroke="#B9B3A6" stroke-width="1"/>
<circle cx="479.5" cy="167.9" r="4.8" fill="#F4F0E6" stroke="#B9B3A6" stroke-width="1"/>
<circle cx="796.7" cy="177.7" r="4.8" fill="#F4F0E6" stroke="#B9B3A6" stroke-width="1"/>
<circle cx="749.1" cy="158.4" r="4.8" fill="#F4F0E6" stroke="#B9B3A6" stroke-width="1"/>
<circle cx="776.3" cy="164.6" r="4.8" fill="#F4F0E6" stroke="#B9B3A6" stroke-width="1"/>
<circle cx="573.5" cy="251.1" r="4.8" fill="#F4F0E6" stroke="#B9B3A6" stroke-width="1"/>
<circle cx="414.6" cy="169.5" r="4.8" fill="#F4F0E6" stroke="#B9B3A6" stroke-width="1"/>
<circle cx="665.7" cy="282.6" r="4.8" fill="#F4F0E6" stroke="#B9B3A6" stroke-width="1"/>
<circle cx="439.9" cy="274.5" r="4.8" fill="#F4F0E6" stroke="#B9B3A6" stroke-width="1"/>
<circle cx="503.1" cy="109.7" r="4.8" fill="#F4F0E6" stroke="#B9B3A6" stroke-width="1"/>
<circle cx="324.3" cy="196.2" r="4.8" fill="#F4F0E6" stroke="#B9B3A6" stroke-width="1"/>
<circle cx="166.7" cy="239.6" r="4.8" fill="#F4F0E6" stroke="#B9B3A6" stroke-width="1"/>
<circle cx="278.3" cy="223.5" r="4.8" fill="#F4F0E6" stroke="#B9B3A6" stroke-width="1"/>
<circle cx="325.7" cy="171.4" r="4.8" fill="#F4F0E6" stroke="#B9B3A6" stroke-width="1"/>
<circle cx="337.9" cy="131.1" r="4.8" fill="#F4F0E6" stroke="#B9B3A6" stroke-width="1"/>
<circle cx="835.7" cy="243.4" r="4.8" fill="#F4F0E6" stroke="#B9B3A6" stroke-width="1"/>
<circle cx="425.3" cy="115.0" r="4.8" fill="#F4F0E6" stroke="#B9B3A6" stroke-width="1"/>
<circle cx="251.7" cy="192.4" r="4.8" fill="#F4F0E6" stroke="#B9B3A6" stroke-width="1"/>
<circle cx="379.5" cy="147.4" r="4.8" fill="#F4F0E6" stroke="#B9B3A6" stroke-width="1"/>
<circle cx="615.6" cy="339.1" r="5.4" fill="#C48A2E" stroke="#E6A23C" stroke-width="1"/>
<circle cx="603.8" cy="173.0" r="5.4" fill="#C48A2E" stroke="#E6A23C" stroke-width="1"/>
<circle cx="583.3" cy="460.1" r="5.4" fill="#C48A2E" stroke="#E6A23C" stroke-width="1"/>
<circle cx="536.0" cy="441.1" r="5.4" fill="#C48A2E" stroke="#E6A23C" stroke-width="1"/>
<circle cx="505.6" cy="389.5" r="5.4" fill="#C48A2E" stroke="#E6A23C" stroke-width="1"/>
<circle cx="617.6" cy="339.8" r="5.4" fill="#C48A2E" stroke="#E6A23C" stroke-width="1"/>
<circle cx="598.5" cy="218.1" r="5.4" fill="#C48A2E" stroke="#E6A23C" stroke-width="1"/>
<circle cx="655.9" cy="333.7" r="5.4" fill="#C48A2E" stroke="#E6A23C" stroke-width="1"/>
<circle cx="635.4" cy="313.8" r="5.4" fill="#C48A2E" stroke="#E6A23C" stroke-width="1"/>
<circle cx="612.6" cy="175.8" r="5.4" fill="#C48A2E" stroke="#E6A23C" stroke-width="1"/>
<circle cx="618.3" cy="318.6" r="5.4" fill="#C48A2E" stroke="#E6A23C" stroke-width="1"/>
<circle cx="653.2" cy="322.6" r="5.4" fill="#C48A2E" stroke="#E6A23C" stroke-width="1"/>
<circle cx="616.4" cy="189.8" r="5.4" fill="#C48A2E" stroke="#E6A23C" stroke-width="1"/>
<circle cx="616.4" cy="205.7" r="5.4" fill="#C48A2E" stroke="#E6A23C" stroke-width="1"/>
<circle cx="496.4" cy="402.9" r="5.4" fill="#C48A2E" stroke="#E6A23C" stroke-width="1"/>
<circle cx="579.4" cy="192.5" r="5.4" fill="#C48A2E" stroke="#E6A23C" stroke-width="1"/>
<circle cx="536.3" cy="375.1" r="5.4" fill="#C48A2E" stroke="#E6A23C" stroke-width="1"/>
<circle cx="632.0" cy="155.5" r="5.4" fill="#C48A2E" stroke="#E6A23C" stroke-width="1"/>
<circle cx="558.5" cy="433.4" r="5.4" fill="#C48A2E" stroke="#E6A23C" stroke-width="1"/>
<circle cx="611.5" cy="341.8" r="7.5" fill="#E6A23C" stroke="#F4F0E6" stroke-width="1"/>
<circle cx="617.5" cy="340.8" r="7.5" fill="#E6A23C" stroke="#F4F0E6" stroke-width="1"/>
<circle cx="575.3" cy="189.7" r="7.5" fill="#E6A23C" stroke="#F4F0E6" stroke-width="1"/>
<circle cx="495.7" cy="430.4" r="7.5" fill="#E6A23C" stroke="#F4F0E6" stroke-width="1"/>
<circle cx="575.2" cy="191.2" r="7.5" fill="#E6A23C" stroke="#F4F0E6" stroke-width="1"/>
<text x="621.5" y="333.8" fill="#F4F0E6" font-family="Georgia, serif" font-size="11">EasyBuild framework developer</text>
<text x="627.5" y="332.8" fill="#F4F0E6" font-family="Georgia, serif" font-size="11">Spack person, port story</text>
<text x="585.3" y="181.7" fill="#F4F0E6" font-family="Georgia, serif" font-size="11">A non-native English reader</text>
<text x="505.7" y="422.4" fill="#F4F0E6" font-family="Georgia, serif" font-size="11">Ask-corpus person</text>
<text x="585.2" y="218.2" fill="#F4F0E6" font-family="Georgia, serif" font-size="11">Saturday tutorial laptop</text>
<text x="56" y="22" fill="#E6A23C" font-family="Georgia, serif" font-size="15">landfold of the seat link graph</text>
<text x="56" y="38" fill="#8D877B" font-family="Georgia, serif" font-size="12">n×n (1−weight) distances, landfold embed --similarity --fun-hd asinh,0.5 --center, stress 0.075. Cream: pack. Gold: docs island. Rings: seeds.</text>
</svg>
